<?xml version="1.0" encoding="iso-8859-1"?>
<!-- Generator: Adobe Illustrator 19.0.0, SVG Export Plug-In . SVG Version: 6.00 Build 0)  -->
<svg version="1.1" id="Capa_1" xmlns="http://www.w3.org/2000/svg" xmlns:xlink="http://www.w3.org/1999/xlink" x="0px" y="0px"
	 viewBox="0 0 512 512" style="enable-background:new 0 0 512 512;" xml:space="preserve">
<g>
	<g>
		<path d="M176,226c-5.52,0-10,4.48-10,10s4.48,10,10,10s10-4.48,10-10S181.52,226,176,226z" fill="#dddddd"/>
	</g>
</g>
<g>
	<g>
		<path d="M418.424,266.298l-16.355-4.087c-3.724-16.263-10.049-31.568-18.864-45.648l8.651-14.418
			c2.36-3.935,1.74-8.972-1.504-12.216l-28.28-28.28c-3.244-3.245-8.282-3.865-12.216-1.503l-14.418,8.65
			c-14.081-8.816-29.387-15.141-45.648-18.864l-4.087-16.356C284.589,129.124,280.589,126,276,126h-40
			c-4.589,0-8.589,3.124-9.702,7.576l-4.087,16.356c-16.262,3.724-31.567,10.048-45.648,18.864l-14.418-8.65
			c-3.935-2.362-8.971-1.742-12.216,1.503l-28.28,28.28c-3.244,3.245-3.864,8.281-1.504,12.216l8.651,14.418
			c-8.815,14.08-15.141,29.385-18.864,45.648l-16.355,4.087C89.123,267.411,86,271.411,86,276v40c0,4.589,3.123,8.589,7.576,9.702
			l16.355,4.087c3.724,16.262,10.049,31.568,18.863,45.647l-8.649,14.407c-2.361,3.935-1.742,8.972,1.502,12.217l28.28,28.29
			c3.245,3.246,8.282,3.866,12.217,1.505l14.418-8.65c14.081,8.816,29.387,15.141,45.648,18.864l4.087,16.356
			c1.113,4.452,5.113,7.576,9.702,7.576h40c4.589,0,8.589-3.124,9.702-7.576l4.087-16.356c16.262-3.724,31.567-10.048,45.648-18.864
			l14.418,8.65c3.934,2.361,8.972,1.741,12.217-1.505l28.28-28.29c3.244-3.245,3.863-8.282,1.502-12.217l-8.649-14.407
			c8.814-14.08,15.14-29.386,18.863-45.647l16.355-4.087c4.453-1.112,7.576-5.113,7.576-9.702v-40
			C426,271.411,422.877,267.411,418.424,266.298z M406,308.191l-14.874,3.717c-3.802,0.95-6.698,4.032-7.41,7.885
			c-3.326,18.009-10.241,34.744-20.555,49.74c-2.22,3.228-2.351,7.455-0.335,10.813l7.861,13.095l-17.239,17.245l-13.104-7.862
			c-3.358-2.016-7.582-1.883-10.812,0.335c-14.997,10.314-31.732,17.23-49.739,20.556c-3.853,0.711-6.936,3.608-7.885,7.409
			L268.191,446h-24.383l-3.718-14.875c-0.949-3.801-4.032-6.698-7.885-7.409c-18.007-3.326-34.742-10.242-49.739-20.556
			c-3.228-2.218-7.455-2.351-10.812-0.335l-13.104,7.862l-17.239-17.245l7.861-13.095c2.016-3.359,1.885-7.585-0.335-10.813
			c-10.313-14.997-17.229-31.731-20.555-49.74c-0.712-3.853-3.608-6.936-7.41-7.885L106,308.191v-24.383l14.874-3.717
			c3.802-0.95,6.698-4.032,7.41-7.885c3.326-18.009,10.241-34.744,20.555-49.74c2.22-3.227,2.351-7.453,0.336-10.812l-7.863-13.104
			l17.238-17.238l13.105,7.863c3.359,2.017,7.584,1.884,10.812-0.335c14.997-10.314,31.732-17.23,49.739-20.556
			c3.853-0.711,6.936-3.608,7.885-7.409L243.809,146h24.383l3.718,14.875c0.949,3.801,4.032,6.698,7.885,7.409
			c18.007,3.326,34.742,10.242,49.739,20.556c3.227,2.218,7.453,2.351,10.812,0.335l13.105-7.863l17.238,17.238l-7.863,13.104
			c-2.015,3.358-1.884,7.584,0.336,10.812c10.313,14.997,17.229,31.731,20.555,49.74c0.712,3.853,3.608,6.936,7.41,7.885
			L406,283.809V308.191z" fill="#dddddd"/>
	</g>
</g>
<g>
	<g>
		<path d="M256,186c-19.395,0-38.459,5.115-55.13,14.791c-4.777,2.772-6.401,8.892-3.629,13.669c2.771,4.776,8.891,6.4,13.668,3.629
			C224.535,210.18,240.127,206,256,206c49.626,0,90,40.374,90,90c0,49.626-40.374,90-90,90c-49.626,0-90-40.374-90-90
			c0-7.269,0.866-14.498,2.574-21.485c1.312-5.365-1.975-10.777-7.339-12.088c-5.367-1.313-10.777,1.975-12.089,7.339
			C147.059,278.306,146,287.132,146,296c0,60.654,49.346,110,110,110s110-49.346,110-110S316.654,186,256,186z" fill="#dddddd"/>
	</g>
</g>
<g>
	<g>
		<path d="M502,0H10C4.478,0,0,4.477,0,10v492c0,5.523,4.478,10,10,10h492c5.522,0,10-4.477,10-10V10C512,4.477,507.522,0,502,0z
			 M20,20h326v60H20V20z M492,492H20V100h472V492z M492,80H366V20h126V80z" fill="#dddddd"/>
	</g>
</g>
<g>
	<g>
		<path d="M70,40H50c-5.522,0-10,4.477-10,10s4.478,10,10,10h20c5.522,0,10-4.477,10-10S75.522,40,70,40z" fill="#dddddd"/>
	</g>
</g>
<g>
	<g>
		<path d="M130,40h-20c-5.522,0-10,4.477-10,10s4.478,10,10,10h20c5.522,0,10-4.477,10-10S135.522,40,130,40z" fill="#dddddd"/>
	</g>
</g>
<g>
	<g>
		<path d="M190,40h-20c-5.522,0-10,4.477-10,10s4.478,10,10,10h20c5.522,0,10-4.477,10-10S195.522,40,190,40z" fill="#dddddd"/>
	</g>
</g>
<g>
	<g>
		<path d="M250,40h-20c-5.522,0-10,4.477-10,10s4.478,10,10,10h20c5.522,0,10-4.477,10-10S255.522,40,250,40z" fill="#dddddd"/>
	</g>
</g>
<g>
	<g>
		<path d="M323.072,288.928l-20-20c-3.906-3.905-10.236-3.905-14.143,0c-3.905,3.905-3.905,10.237,0,14.143L301.857,296
			l-12.929,12.929c-3.905,3.905-3.905,10.237,0.001,14.142s10.236,3.905,14.143,0l20-20
			C326.977,299.166,326.977,292.834,323.072,288.928z" fill="#dddddd"/>
	</g>
</g>
<g>
	<g>
		<path d="M210.143,296l12.929-12.929c3.905-3.905,3.905-10.237-0.001-14.142c-3.906-3.905-10.236-3.905-14.143,0l-20,20
			c-3.905,3.905-3.905,10.237,0,14.143l20,20c3.906,3.905,10.236,3.905,14.143,0c3.905-3.905,3.905-10.237,0-14.143L210.143,296z" fill="#dddddd"/>
	</g>
</g>
<g>
	<g>
		<path d="M268.426,246.298c-5.357-1.334-10.788,1.919-12.127,7.276l-20,80c-1.34,5.358,1.918,10.787,7.275,12.127
			c5.368,1.339,10.789-1.923,12.127-7.276l20-80C277.041,253.067,273.783,247.638,268.426,246.298z" fill="#dddddd"/>
	</g>
</g>
<g>
</g>
<g>
</g>
<g>
</g>
<g>
</g>
<g>
</g>
<g>
</g>
<g>
</g>
<g>
</g>
<g>
</g>
<g>
</g>
<g>
</g>
<g>
</g>
<g>
</g>
<g>
</g>
<g>
</g>
</svg>
